<?xml version="1.0" encoding="utf-8" ?><svg xmlns="http://www.w3.org/2000/svg" xmlns:xlink="http://www.w3.org/1999/xlink" width="800" height="400" viewBox="0 0 800 400"><path fill="#E1E1E1" transform="scale(0.390625 0.390625)" d="M0 0L2048 0L2048 1024L0 1024L0 0ZM608.292 341.188C587.507 347.967 576.268 363.113 566.712 381.986C539.567 435.597 530.651 519.282 529.033 579.021C528.75 589.493 527.107 609.163 530.361 618.784C531.905 623.351 534.966 627.375 539.348 629.512C543.402 631.488 547.889 631.696 552.11 630.087C558.33 627.716 562.474 622.228 565.023 616.289C568.234 608.806 570.09 600.732 573.066 593.127C584.694 563.408 601.5 533.295 628.591 515.229C622.093 542.142 600.741 591.995 616.947 617.983C620.784 624.134 626.693 627.979 633.718 629.559C651.794 633.624 670.038 625.181 684.86 615.537C689.16 612.74 693.478 609.909 697.577 606.822C705.661 617.947 714.483 627.483 728.822 629.717C741.588 631.706 755.009 627.74 765.274 620.083C771.146 615.703 775.58 610.364 780.043 604.612C785.477 614.798 790.949 624.706 802.736 628.459C811.894 631.375 821.616 629.01 829.84 624.515C837.415 620.374 844.301 614.335 849.972 607.861C851.12 615.699 852.081 621.703 858.829 626.826C861.836 629.109 865.436 630.352 869.225 629.848C873.639 629.26 877.268 626.186 879.862 622.735C887.166 613.017 888.862 597.167 892.279 585.526C896.948 569.618 911.481 534.043 925.655 524.304L926.473 524.684C926.318 543.003 925.99 561.451 940.08 575.478C947.303 582.67 956.649 585.316 966.662 585.26C975.856 585.208 984.526 582.929 992.754 578.872C998.417 597.637 1007 613.667 1024.85 623.26C1042.11 632.537 1063.19 631.842 1081.52 626.179C1097.81 621.145 1112.07 611.936 1125.63 601.822C1126.23 648.763 1129.5 712.351 1165.15 747.164C1173.56 755.369 1184.47 761.871 1196.55 761.736C1204.54 761.646 1211.71 758.479 1217.16 752.631C1231.92 736.789 1231.46 705.968 1230.51 685.822C1228.69 647.297 1216.55 611.472 1199.6 577.161C1214.65 577.157 1229.77 576.805 1244.81 577.212C1249.34 595.523 1259.38 612.926 1275.97 622.778C1289.54 630.838 1306.36 632.797 1321.56 628.815C1338.36 624.416 1352.17 612.749 1360.84 597.881C1372.04 578.698 1373.83 554.235 1368.4 532.917C1376.16 537.739 1383.84 541.751 1392.08 545.653C1392.38 569.612 1395.34 600.892 1413.58 618.667C1422.21 627.078 1432.42 630.61 1444.38 630.353C1461.33 629.989 1473.95 622.393 1487.78 613.504C1493.09 622.093 1498.9 627.668 1509.11 629.991C1529.27 634.578 1550.36 624.075 1566.81 613.483C1570.5 611.12 1574.1 608.636 1577.63 606.034C1592.35 624.732 1610.72 636.887 1634.71 639.719C1660.05 642.712 1688.24 635.373 1708.3 619.472C1725.78 605.616 1738.16 585.237 1740.73 562.933C1743.38 539.972 1737.3 517.012 1722.81 498.888C1707.6 479.976 1685.44 467.96 1661.29 465.534C1635.79 462.762 1609.18 468.436 1589 484.825C1572.13 498.521 1561.06 519.827 1558.95 541.401C1557.52 556.109 1560.4 569.771 1564.57 583.797C1555.7 589.72 1540.66 600.825 1529.28 598.757C1526.53 598.258 1524.35 596.822 1522.82 594.495C1516.33 584.664 1524.12 558.143 1526.86 547.618C1529.75 536.372 1533.26 525.296 1537.39 514.443C1540.4 506.403 1544.46 497.917 1546.23 489.539C1542.59 483.967 1538.68 479.28 1531.87 477.753C1527.23 476.711 1522.66 478.218 1518.78 480.798C1505.15 489.879 1498.04 512.006 1494.36 527.254C1489.18 546.036 1486.57 564.715 1483.71 583.916C1474 590.757 1461.44 600.407 1448.76 598.428C1443.77 597.649 1439.73 594.931 1436.79 590.875C1430.83 582.662 1429.99 571.664 1428.89 561.891C1441.91 543.159 1452.67 522.65 1463.56 502.633C1480.55 471.374 1521.13 400.42 1514.64 364.819C1513.33 357.626 1509.55 351.688 1503.41 347.678C1496.89 343.419 1488.98 343.674 1481.64 345.351C1458.83 350.557 1442.18 370.721 1430.45 389.714C1412.7 418.425 1402.24 452.729 1396.47 485.822C1394.68 496.037 1393.81 506.399 1392 516.601C1382.05 509.926 1371.75 503.656 1361.9 496.86C1355.8 492.655 1350.27 487.192 1343.95 483.398C1333.04 476.854 1315.91 476.451 1303.75 478.818C1284.83 482.501 1268.43 494.065 1257.73 510.005C1250.15 521.313 1247.21 533.203 1243.56 546.078C1219.3 545.98 1195.04 546.038 1170.79 546.252C1206.37 506.301 1257.06 430.82 1253.93 375.946C1253.38 366.423 1250.51 356.223 1243.11 349.708C1241.46 348.253 1239.61 347.153 1237.68 346.112C1221.73 344.76 1210.52 347.058 1197.99 357.567C1152.53 395.681 1133.89 482.382 1129.1 539.665C1128.06 552.172 1129.23 562.465 1118.9 571.269C1101.96 585.702 1074.73 600.435 1051.8 598.298C1045.11 597.676 1039.46 594.759 1035.19 589.548C1033.15 587.058 1031.57 584.057 1029.95 581.276C1054.3 575.646 1080.97 564.39 1094.65 542.103C1100.7 532.254 1103.06 520.578 1100.3 509.261C1097.73 498.826 1091.01 489.892 1081.7 484.522C1070.25 477.827 1056.62 477.144 1044.02 480.616C1025.61 485.69 1011.73 497.438 1002.39 513.96C996.156 525.003 992.796 549.239 979.417 553.063C973.575 554.733 967.024 553.853 961.748 550.823C958.31 548.848 956.404 545.695 955.511 541.906C951.515 524.962 972.595 491.2 958.141 482.142C952.762 478.772 944.086 479.37 938.21 480.894C922.011 485.095 910.577 502.645 902.782 516.313C899.425 522.264 896.13 528.249 892.896 534.268C896.166 521.458 905.848 496.851 898.804 484.487C897.598 482.369 895.809 480.816 893.377 480.293C888.528 479.25 882.387 481.204 878.44 484.021C863.172 494.917 857.101 530.209 854.487 547.575C851.739 565.831 850.18 579.489 834.122 591.674C828.982 595.574 821.828 599.188 815.206 598.612C812.103 596.762 810.617 595.192 809.715 591.592C805.658 575.392 812.538 545.323 816.264 528.687C817.666 522.429 820.148 515.086 820.317 508.709C820.412 505.129 819.887 501.858 817.57 499.043C814.691 497.284 812.207 497.577 809.083 498.337C805.889 499.114 802.032 500.771 798.79 500.132C796.996 494.46 796.841 485.547 791.093 482.549C781.84 477.723 768.554 479.917 759.026 483.108C734.012 491.486 712.051 513.726 700.489 537.022C694.252 549.592 691.763 562.146 691.715 576.12C683.233 584.166 670.118 598.196 657.357 597.712C654.856 597.617 652.353 596.804 650.691 594.837C647.653 591.242 648.225 585.281 648.842 580.979C652.036 558.732 676.595 500.183 665.383 484.721C662.674 480.986 658.739 479.183 654.262 478.523C643.402 476.923 632.741 482.089 624.359 488.527C603.032 504.91 591.096 526.431 572.052 543.014C595.685 502.007 653.261 405.914 640.229 358.506C638.522 352.296 635.07 346.854 629.317 343.716C622.977 340.258 615.284 340.179 608.292 341.188ZM415.573 355.375C389.709 359.133 363.063 367.184 346.687 389.121C337.781 401.053 333.351 417.239 335.632 431.964C338.675 451.594 351.414 464.331 366.815 475.361C379.781 484.647 394.19 492.011 408.45 499.09C430.433 510.003 468.311 523.266 472.709 551.098C474.448 562.106 471.247 574.138 464.646 583.07C455.531 595.404 436.402 603.86 421.393 605.889C401.539 608.573 376.353 606.093 360.137 593.282C352.539 587.28 347.612 578.933 346.538 569.255C345.037 555.718 361.373 529.717 351.366 521.986C347.905 519.313 341.228 517.462 336.829 518.244C327.615 519.882 319.474 527.42 314.533 534.996C306.256 547.687 304.321 564.923 307.539 579.545C311.076 595.616 321.35 608.049 334.972 616.717C362.439 634.193 397.756 636.456 429.206 631.742C455.903 627.993 481.822 616.499 498.363 594.494C508.924 580.444 512.164 562.583 509.641 545.366C507.058 527.743 496.267 514.324 482.32 504.085C454.868 483.932 407.042 468.783 384.734 447.911C378.517 442.095 373.649 434.872 372.368 426.318C371.119 417.98 373.822 409.414 378.879 402.73C387.169 391.774 407.153 384.518 420.391 382.999C437.189 381.071 456.568 381.508 470.391 392.597C476.409 397.425 480.497 403.851 481.25 411.62C483.975 439.723 444.789 458.28 462.016 473.328C464.335 475.354 466.572 475.936 469.599 475.668C483.029 474.478 495.179 464.181 503.363 454.036C514.437 440.308 520.729 422.058 518.696 404.354C517.178 391.145 510.546 379.543 500.147 371.312C476.633 352.701 443.853 353.746 415.573 355.375ZM1532.28 406.383C1518.41 410.818 1510.76 425.659 1515.19 439.535C1519.62 453.41 1534.46 461.067 1548.34 456.639C1562.22 452.209 1569.88 437.363 1565.44 423.483C1561.01 409.603 1546.16 401.947 1532.28 406.383Z"/><path fill="#040404" transform="scale(0.390625 0.390625)" d="M628.591 515.229C601.5 533.295 584.694 563.408 573.066 593.127C570.09 600.732 568.234 608.806 565.023 616.289C562.474 622.228 558.33 627.716 552.11 630.087C547.889 631.696 543.402 631.488 539.348 629.512C534.966 627.375 531.905 623.351 530.361 618.784C527.107 609.163 528.75 589.493 529.033 579.021C530.651 519.282 539.567 435.597 566.712 381.986C576.268 363.113 587.507 347.967 608.292 341.188C615.284 340.179 622.977 340.258 629.317 343.716C635.07 346.854 638.522 352.296 640.229 358.506C653.261 405.914 595.685 502.007 572.052 543.014C591.096 526.431 603.032 504.91 624.359 488.527C632.741 482.089 643.402 476.923 654.262 478.523C658.739 479.183 662.674 480.986 665.383 484.721C676.595 500.183 652.036 558.732 648.842 580.979C648.225 585.281 647.653 591.242 650.691 594.837C652.353 596.804 654.856 597.617 657.357 597.712C670.118 598.196 683.233 584.166 691.715 576.12C691.763 562.146 694.252 549.592 700.489 537.022C712.051 513.726 734.012 491.486 759.026 483.108C768.554 479.917 781.84 477.723 791.093 482.549C796.841 485.547 796.996 494.46 798.79 500.132C802.032 500.771 805.889 499.114 809.083 498.337C812.207 497.577 814.691 497.284 817.57 499.043C819.887 501.858 820.412 505.129 820.317 508.709C820.148 515.086 817.666 522.429 816.264 528.687C812.538 545.323 805.658 575.392 809.715 591.592C810.617 595.192 812.103 596.762 815.206 598.612C821.828 599.188 828.982 595.574 834.122 591.674C850.18 579.489 851.739 565.831 854.487 547.575C857.101 530.209 863.172 494.917 878.44 484.021C882.387 481.204 888.528 479.25 893.377 480.293C895.809 480.816 897.598 482.369 898.804 484.487C905.848 496.851 896.166 521.458 892.896 534.268C896.13 528.249 899.425 522.264 902.782 516.313C910.577 502.645 922.011 485.095 938.21 480.894C944.086 479.37 952.762 478.772 958.141 482.142C972.595 491.2 951.515 524.962 955.511 541.906C956.404 545.695 958.31 548.848 961.748 550.823C967.024 553.853 973.575 554.733 979.417 553.063C992.796 549.239 996.156 525.003 1002.39 513.96C1011.73 497.438 1025.61 485.69 1044.02 480.616C1056.62 477.144 1070.25 477.827 1081.7 484.522C1091.01 489.892 1097.73 498.826 1100.3 509.261C1103.06 520.578 1100.7 532.254 1094.65 542.103C1080.97 564.39 1054.3 575.646 1029.95 581.276C1031.57 584.057 1033.15 587.058 1035.19 589.548C1039.46 594.759 1045.11 597.676 1051.8 598.298C1074.73 600.435 1101.96 585.702 1118.9 571.269C1129.23 562.465 1128.06 552.172 1129.1 539.665C1133.89 482.382 1152.53 395.681 1197.99 357.567C1210.52 347.058 1221.73 344.76 1237.68 346.112C1239.61 347.153 1241.46 348.253 1243.11 349.708C1250.51 356.223 1253.38 366.423 1253.93 375.946C1257.06 430.82 1206.37 506.301 1170.79 546.252C1195.04 546.038 1219.3 545.98 1243.56 546.078C1247.21 533.203 1250.15 521.313 1257.73 510.005C1268.43 494.065 1284.83 482.501 1303.75 478.818C1315.91 476.451 1333.04 476.854 1343.95 483.398C1350.27 487.192 1355.8 492.655 1361.9 496.86C1371.75 503.656 1382.05 509.926 1392 516.601C1393.81 506.399 1394.68 496.037 1396.47 485.822C1402.24 452.729 1412.7 418.425 1430.45 389.714C1442.18 370.721 1458.83 350.557 1481.64 345.351C1488.98 343.674 1496.89 343.419 1503.41 347.678C1509.55 351.688 1513.33 357.626 1514.64 364.819C1521.13 400.42 1480.55 471.374 1463.56 502.633C1452.67 522.65 1441.91 543.159 1428.89 561.891C1429.99 571.664 1430.83 582.662 1436.79 590.875C1439.73 594.931 1443.77 597.649 1448.76 598.428C1461.44 600.407 1474 590.757 1483.71 583.916C1486.57 564.715 1489.18 546.036 1494.36 527.254C1498.04 512.006 1505.15 489.879 1518.78 480.798C1522.66 478.218 1527.23 476.711 1531.87 477.753C1538.68 479.28 1542.59 483.967 1546.23 489.539C1544.46 497.917 1540.4 506.403 1537.39 514.443C1533.26 525.296 1529.75 536.372 1526.86 547.618C1524.12 558.143 1516.33 584.664 1522.82 594.495C1524.35 596.822 1526.53 598.258 1529.28 598.757C1540.66 600.825 1555.7 589.72 1564.57 583.797C1560.4 569.771 1557.52 556.109 1558.95 541.401C1561.06 519.827 1572.13 498.521 1589 484.825C1609.18 468.436 1635.79 462.762 1661.29 465.534C1685.44 467.96 1707.6 479.976 1722.81 498.888C1737.3 517.012 1743.38 539.972 1740.73 562.933C1738.16 585.237 1725.78 605.616 1708.3 619.472C1688.24 635.373 1660.05 642.712 1634.71 639.719C1610.72 636.887 1592.35 624.732 1577.63 606.034C1574.1 608.636 1570.5 611.12 1566.81 613.483C1550.36 624.075 1529.27 634.578 1509.11 629.991C1498.9 627.668 1493.09 622.093 1487.78 613.504C1473.95 622.393 1461.33 629.989 1444.38 630.353C1432.42 630.61 1422.21 627.078 1413.58 618.667C1395.34 600.892 1392.38 569.612 1392.08 545.653C1383.84 541.751 1376.16 537.739 1368.4 532.917C1373.83 554.235 1372.04 578.698 1360.84 597.881C1352.17 612.749 1338.36 624.416 1321.56 628.815C1306.36 632.797 1289.54 630.838 1275.97 622.778C1259.38 612.926 1249.34 595.523 1244.81 577.212C1229.77 576.805 1214.65 577.157 1199.6 577.161C1216.55 611.472 1228.69 647.297 1230.51 685.822C1231.46 705.968 1231.92 736.789 1217.16 752.631C1211.71 758.479 1204.54 761.646 1196.55 761.736C1184.47 761.871 1173.56 755.369 1165.15 747.164C1129.5 712.351 1126.23 648.763 1125.63 601.822C1112.07 611.936 1097.81 621.145 1081.52 626.179C1063.19 631.842 1042.11 632.537 1024.85 623.26C1007 613.667 998.417 597.637 992.754 578.872C984.526 582.929 975.856 585.208 966.662 585.26C956.649 585.316 947.303 582.67 940.08 575.478C925.99 561.451 926.318 543.003 926.473 524.684L925.655 524.304C911.481 534.043 896.948 569.618 892.279 585.526C888.862 597.167 887.166 613.017 879.862 622.735C877.268 626.186 873.639 629.26 869.225 629.848C865.436 630.352 861.836 629.109 858.829 626.826C852.081 621.703 851.12 615.699 849.972 607.861C844.301 614.335 837.415 620.374 829.84 624.515C821.616 629.01 811.894 631.375 802.736 628.459C790.949 624.706 785.477 614.798 780.043 604.612C775.58 610.364 771.146 615.703 765.274 620.083C755.009 627.74 741.588 631.706 728.822 629.717C714.483 627.483 705.661 617.947 697.577 606.822C693.478 609.909 689.16 612.74 684.86 615.537C670.038 625.181 651.794 633.624 633.718 629.559C626.693 627.979 620.784 624.134 616.947 617.983C600.741 591.995 622.093 542.142 628.591 515.229ZM608.72 366.535C584.01 387.472 570.419 470.554 567.382 502.96C567.254 504.326 567.323 505.008 567.929 506.242L569.709 504.664C587.027 468.179 602.847 431.649 611.464 392C612.761 386.036 615.479 375.966 613.543 370.019C613.23 369.055 612.566 367.735 611.592 367.343C610.545 366.921 609.864 366.638 608.72 366.535ZM1217.92 372.99C1191.76 389.492 1182.88 433.067 1176.53 461.142C1172.85 477.452 1169.83 494.265 1168.56 510.943C1170.83 508.315 1173.16 505.731 1175.16 502.894C1197.12 470.604 1219.84 436.179 1225.93 396.8C1226.75 391.484 1228.05 384.062 1227.11 378.779C1226.69 376.416 1225.77 375.597 1224.21 373.86C1221.98 372.888 1220.33 372.86 1217.92 372.99ZM1480.68 372.663C1454.74 388.228 1441.86 436.609 1434.8 464.893C1432.5 474.09 1423.98 509.329 1427.7 516.434C1428.54 515.416 1429.39 514.474 1429.92 513.251C1441.81 491.34 1493.98 398.912 1487.04 377.683C1486.29 375.413 1485.41 374.629 1483.29 373.613C1482.47 373.216 1481.55 372.943 1480.68 372.663ZM1645.26 487.397C1632.73 498.837 1620.73 510.929 1608.51 522.707C1598.65 532.219 1588.15 541.508 1579.13 551.812C1587.2 562.021 1633.5 608.134 1643.78 614.786C1645.61 615.97 1647.68 616.217 1649.8 616.474C1650.39 616.545 1650.99 616.608 1651.59 616.662C1663.42 607.349 1674.02 595.776 1684.75 585.22C1695.77 574.376 1707.64 563.69 1717.75 551.997C1710.63 543.778 1657.85 487.913 1649.65 487.405C1648.18 487.314 1646.73 487.401 1645.26 487.397ZM1311.95 506.041C1301.63 508.148 1293.62 515.573 1287.96 524.209C1278.57 538.566 1274.8 558.136 1278.62 574.9C1280.99 585.306 1286.5 594.828 1295.73 600.519C1299.35 602.748 1303.07 603.327 1307.22 603.897C1315.36 603.6 1321.48 600.953 1327.09 594.922C1336.83 584.454 1339.66 568.881 1339.01 555.02C1338.74 549.401 1337.67 544.021 1336.35 538.567C1327.45 534.646 1319.58 530.685 1315.79 521.007C1314.35 517.328 1316.42 507.458 1313.73 505.941L1311.95 506.041ZM774.706 509.106C759.971 512.766 747.033 525.824 739.426 538.502C731.227 552.165 725.159 570.937 729.151 586.819C731.037 594.32 734.503 599.273 740.889 603.526C747.721 604.341 753.711 603.222 759.264 598.923C775.339 586.479 773.369 560.571 777.842 542.787C780.008 534.175 784.946 525.058 785.804 516.321C785.933 515.011 784.479 512.192 783.554 511.232C781.507 509.108 777.457 509.101 774.706 509.106ZM1050.83 509.11C1041.15 513.338 1035.16 519.253 1031.19 529.221C1027.03 539.659 1026.62 550.241 1027.1 561.315C1031.89 559.842 1036.95 558.584 1041.48 556.418C1053.42 550.383 1066.07 542.17 1070.54 528.771C1071.85 524.846 1072.82 519.7 1070.73 515.863C1068.92 512.549 1064.32 510.133 1060.74 509.311C1057.56 508.579 1054.07 508.94 1050.83 509.11ZM1164.51 570.409C1161.64 607.447 1160.46 695.059 1184.28 723.429C1186.68 726.283 1189.63 729.074 1193.5 729.565C1195.13 729.772 1196.8 729.344 1198.37 728.944C1210.68 696.31 1190.49 621.871 1176.13 590.111C1173.31 583.873 1169.66 575.034 1164.51 570.409Z"/><path fill="#040404" transform="scale(0.390625 0.390625)" d="M429.206 631.742C397.756 636.456 362.439 634.193 334.972 616.717C321.35 608.049 311.076 595.616 307.539 579.545C304.321 564.923 306.256 547.687 314.533 534.996C319.474 527.42 327.615 519.882 336.829 518.244C341.228 517.462 347.905 519.313 351.366 521.986C361.373 529.717 345.037 555.718 346.538 569.255C347.612 578.933 352.539 587.28 360.137 593.282C376.353 606.093 401.539 608.573 421.393 605.889C436.402 603.86 455.531 595.404 464.646 583.07C471.247 574.138 474.448 562.106 472.709 551.098C468.311 523.266 430.433 510.003 408.45 499.09C394.19 492.011 379.781 484.647 366.815 475.361C351.414 464.331 338.675 451.594 335.632 431.964C333.351 417.239 337.781 401.053 346.687 389.121C363.063 367.184 389.709 359.133 415.573 355.375C443.853 353.746 476.633 352.701 500.147 371.312C510.546 379.543 517.178 391.145 518.696 404.354C520.729 422.058 514.437 440.308 503.363 454.036C495.179 464.181 483.029 474.478 469.599 475.668C466.572 475.936 464.335 475.354 462.016 473.328C444.789 458.28 483.975 439.723 481.25 411.62C480.497 403.851 476.409 397.425 470.391 392.597C456.568 381.508 437.189 381.071 420.391 382.999C407.153 384.518 387.169 391.774 378.879 402.73C373.822 409.414 371.119 417.98 372.368 426.318C373.649 434.872 378.517 442.095 384.734 447.911C407.042 468.783 454.868 483.932 482.32 504.085C496.267 514.324 507.058 527.743 509.641 545.366C512.164 562.583 508.924 580.444 498.363 594.494C481.822 616.499 455.903 627.993 429.206 631.742Z"/><path fill="#E1E1E1" transform="scale(0.390625 0.390625)" d="M569.709 504.664L567.929 506.242C567.323 505.008 567.254 504.326 567.382 502.96C570.419 470.554 584.01 387.472 608.72 366.535C609.864 366.638 610.545 366.921 611.592 367.343C612.566 367.735 613.23 369.055 613.543 370.019C615.479 375.966 612.761 386.036 611.464 392C602.847 431.649 587.027 468.179 569.709 504.664Z"/><path fill="#E1E1E1" transform="scale(0.390625 0.390625)" d="M1168.56 510.943C1169.83 494.265 1172.85 477.452 1176.53 461.142C1182.88 433.067 1191.76 389.492 1217.92 372.99C1220.33 372.86 1221.98 372.888 1224.21 373.86C1225.77 375.597 1226.69 376.416 1227.11 378.779C1228.05 384.062 1226.75 391.484 1225.93 396.8C1219.84 436.179 1197.12 470.604 1175.16 502.894C1173.16 505.731 1170.83 508.315 1168.56 510.943Z"/><path fill="#E1E1E1" transform="scale(0.390625 0.390625)" d="M1429.92 513.251C1429.39 514.474 1428.54 515.416 1427.7 516.434C1423.98 509.329 1432.5 474.09 1434.8 464.893C1441.86 436.609 1454.74 388.228 1480.68 372.663C1481.55 372.943 1482.47 373.216 1483.29 373.613C1485.41 374.629 1486.29 375.413 1487.04 377.683C1493.98 398.912 1441.81 491.34 1429.92 513.251Z"/><path fill="#040404" transform="scale(0.390625 0.390625)" d="M1548.34 456.639C1534.46 461.067 1519.62 453.41 1515.19 439.535C1510.76 425.659 1518.41 410.818 1532.28 406.383C1546.16 401.947 1561.01 409.603 1565.44 423.483C1569.88 437.363 1562.22 452.209 1548.34 456.639Z"/><path fill="#E1E1E1" transform="scale(0.390625 0.390625)" d="M1579.13 551.812C1588.15 541.508 1598.65 532.219 1608.51 522.707C1620.73 510.929 1632.73 498.837 1645.26 487.397C1646.73 487.401 1648.18 487.314 1649.65 487.405C1657.85 487.913 1710.63 543.778 1717.75 551.997C1707.64 563.69 1695.77 574.376 1684.75 585.22C1674.02 595.776 1663.42 607.349 1651.59 616.662C1650.99 616.608 1650.39 616.545 1649.8 616.474C1647.68 616.217 1645.61 615.97 1643.78 614.786C1633.5 608.134 1587.2 562.021 1579.13 551.812Z"/><path fill="#E1E1E1" transform="scale(0.390625 0.390625)" d="M1307.22 603.897C1303.07 603.327 1299.35 602.748 1295.73 600.519C1286.5 594.828 1280.99 585.306 1278.62 574.9C1274.8 558.136 1278.57 538.566 1287.96 524.209C1293.62 515.573 1301.63 508.148 1311.95 506.041L1313.73 505.941C1316.42 507.458 1314.35 517.328 1315.79 521.007C1319.58 530.685 1327.45 534.646 1336.35 538.567C1337.67 544.021 1338.74 549.401 1339.01 555.02C1339.66 568.881 1336.83 584.454 1327.09 594.922C1321.48 600.953 1315.36 603.6 1307.22 603.897Z"/><path fill="#E1E1E1" transform="scale(0.390625 0.390625)" d="M740.889 603.526C734.503 599.273 731.037 594.32 729.151 586.819C725.159 570.937 731.227 552.165 739.426 538.502C747.033 525.824 759.971 512.766 774.706 509.106C777.457 509.101 781.507 509.108 783.554 511.232C784.479 512.192 785.933 515.011 785.804 516.321C784.946 525.058 780.008 534.175 777.842 542.787C773.369 560.571 775.339 586.479 759.264 598.923C753.711 603.222 747.721 604.341 740.889 603.526Z"/><path fill="#E1E1E1" transform="scale(0.390625 0.390625)" d="M1027.1 561.315C1026.62 550.241 1027.03 539.659 1031.19 529.221C1035.16 519.253 1041.15 513.338 1050.83 509.11C1054.07 508.94 1057.56 508.579 1060.74 509.311C1064.32 510.133 1068.92 512.549 1070.73 515.863C1072.82 519.7 1071.85 524.846 1070.54 528.771C1066.07 542.17 1053.42 550.383 1041.48 556.418C1036.95 558.584 1031.89 559.842 1027.1 561.315Z"/><path fill="#E1E1E1" transform="scale(0.390625 0.390625)" d="M1198.37 728.944C1196.8 729.344 1195.13 729.772 1193.5 729.565C1189.63 729.074 1186.68 726.283 1184.28 723.429C1160.46 695.059 1161.64 607.447 1164.51 570.409C1169.66 575.034 1173.31 583.873 1176.13 590.111C1190.49 621.871 1210.68 696.31 1198.37 728.944Z"/></svg>